<?xml version="1.0" standalone="no"?><!DOCTYPE svg PUBLIC "-//W3C//DTD SVG 1.1//EN" "http://www.w3.org/Graphics/SVG/1.1/DTD/svg11.dtd"><svg t="1517539279078" class="icon" style="" viewBox="0 0 1024 1024" version="1.1" xmlns="http://www.w3.org/2000/svg" p-id="1037" xmlns:xlink="http://www.w3.org/1999/xlink" width="16" height="16"><defs><style type="text/css"></style></defs><path d="M853.333333 106.666667c12.8 0 21.333333 8.533333 21.333334 21.333333v38.4c0 4.266667-2.133333 10.666667-4.266667 12.8L588.8 437.333333c-21.333333 19.2-34.133333 49.066667-34.133333 78.933334v384L480 853.333333c-6.4-4.266667-10.666667-10.666667-10.666667-17.066666v-320c0-29.866667-12.8-57.6-34.133333-78.933334L153.6 179.2C151.466667 174.933333 149.333333 170.666667 149.333333 166.4V128c0-10.666667 8.533333-21.333333 21.333334-21.333333h682.666666m0-42.666667H170.666667C134.4 64 106.666667 91.733333 106.666667 128v38.4c0 17.066667 6.4 32 17.066666 42.666667L405.333333 469.333333c12.8 12.8 21.333333 29.866667 21.333334 46.933334v317.866666c0 21.333333 10.666667 42.666667 29.866666 53.333334l108.8 66.133333c2.133333 6.4 6.4 6.4 10.666667 6.4 10.666667 0 21.333333-8.533333 21.333333-21.333333V516.266667c0-17.066667 8.533333-34.133333 21.333334-46.933334L900.266667 209.066667c10.666667-12.8 17.066667-27.733333 17.066666-42.666667V128c0-36.266667-27.733333-64-64-64z" fill="#999999" p-id="1038"></path></svg>