<?xml version="1.0" standalone="no"?><!DOCTYPE svg PUBLIC "-//W3C//DTD SVG 1.1//EN" "http://www.w3.org/Graphics/SVG/1.1/DTD/svg11.dtd"><svg t="1515912997726" class="icon" style="" viewBox="0 0 1024 1024" version="1.1" xmlns="http://www.w3.org/2000/svg" p-id="7962" xmlns:xlink="http://www.w3.org/1999/xlink" width="48" height="48"><defs><style type="text/css"></style></defs><path d="M512 512m-512 0a512 512 0 1 0 1024 0 512 512 0 1 0-1024 0Z" fill="#FBD000" p-id="7963"></path><path d="M944 238.4c0-0.8-0.8-0.8-0.8-1.6H80c-3.2 4.8-5.6 8.8-8.8 13.6v523.2c31.2 52.8 72 100 119.2 137.6H832c46.4-36.8 84.8-81.6 116-132l-4-540.8z" fill="#F4B10B" p-id="7964"></path><path d="M948.8 801.6c0 17.6-14.4 32-32 32L103.2 832c-17.6 0-32-14.4-32-32V189.6c0-17.6 14.4-32 32-32h808c17.6 0 32 14.4 32 32l5.6 612z" fill="#FFFFFF" p-id="7965"></path><path d="M948.8 281.6H71.2V189.6c0-17.6 14.4-32 32-32h813.6c4 0 32 14.4 32 32v92z" fill="#EAEAEA" p-id="7966"></path><path d="M911.2 840h-808c-22.4 0-39.2-17.6-39.2-40V192c0-22.4 17.6-40 40-40h807.2c10.4 0 20.8 4 28.8 12s12 17.6 12 28v608c0 22.4-18.4 40-40.8 40zM104 168c-13.6 0-24 11.2-24 24v608c0 13.6 10.4 24 23.2 24h808c13.6 0 24.8-11.2 24.8-24V192c0-6.4-2.4-12-7.2-16.8-4.8-4.8-10.4-7.2-16.8-7.2H104z" fill="#663210" p-id="7967"></path><path d="M896 240H360v-40h536z" fill="#D4D6D6" p-id="7968"></path><path d="M940 288H71.2c-4.8 0-8-3.2-8-8s3.2-8 8-8h868.8c4.8 0 8 3.2 8 8s-3.2 8-8 8z" fill="#663210" p-id="7969"></path><path d="M136 360h208v376H136z" fill="#75B600" p-id="7970"></path><path d="M400 360h205.6v376H400z" fill="#28A5C6" p-id="7971"></path><path d="M669.6 365.6h205.6v372.8H669.6z" fill="#FF4848" p-id="7972"></path><path d="M984 736c0 17.6-14.4 32-32 32H552c-17.6 0-32-14.4-32-32V120c0-17.6 14.4-32 32-32h400c17.6 0 32 14.4 32 32v616z" fill="#FFFFFF" p-id="7973"></path><path d="M984 211.2H521.6V120c0-17.6 14.4-32 32-32H952c4 0 32 14.4 32 32v91.2z" fill="#EAEAEA" p-id="7974"></path><path d="M936 168h-128l1.6-40H936z" fill="#D4D6D6" p-id="7975"></path><path d="M976 216H521.6c-4.8 0-8-3.2-8-8s3.2-8 8-8H976c4.8 0 8 3.2 8 8s-4 8-8 8z" fill="#663210" p-id="7976"></path><path d="M660 148m-20 0a20 20 0 1 0 40 0 20 20 0 1 0-40 0Z" fill="#92C438" p-id="7977"></path><path d="M588 148m-20 0a20 20 0 1 0 40 0 20 20 0 1 0-40 0Z" fill="#F74541" p-id="7978"></path><path d="M732 148m-20 0a20 20 0 1 0 40 0 20 20 0 1 0-40 0Z" fill="#FBD000" p-id="7979"></path><path d="M952 776H552c-22.4 0-40-17.6-40-40V120c0-22.4 17.6-40 40-40h400c22.4 0 40 17.6 40 40v616c0 22.4-17.6 40-40 40zM552 96c-13.6 0-24 10.4-24 24v616c0 13.6 10.4 24 24 24h400c13.6 0 24-10.4 24-24V120c0-13.6-10.4-24-24-24H552z" fill="#663210" p-id="7980"></path><path d="M568 256h368v208H568z" fill="#75B600" p-id="7981"></path><path d="M568 520h368v208H568z" fill="#28A5C6" p-id="7982"></path><path d="M528 992c-17.6 0-32-14.4-32-32s14.4-32 32-32 32 14.4 32 32-14.4 32-32 32z m0-48c-8.8 0-16 7.2-16 16s7.2 16 16 16 16-7.2 16-16-7.2-16-16-16zM461.6 88c0-3.2-3.2-6.4-8-7.2l-15.2-2.4c-4-0.8-8.8-4.8-8.8-8.8l-2.4-15.2c-0.8-4-4-8-7.2-8s-6.4 3.2-7.2 8l-2.4 15.2c-0.8 4-4.8 8.8-8.8 8.8l-15.2 2.4c-4 0.8-8 4-8 7.2s3.2 6.4 8 7.2l15.2 2.4c4 0.8 8.8 4.8 8.8 8.8l2.4 15.2c0.8 4 4 8 7.2 8s6.4-3.2 6.4-8l2.4-16.8c0.8-4 4.8-8 8.8-8.8l14.4-0.8c5.6-1.6 9.6-4 9.6-7.2z" fill="#FFFFFF" p-id="7983"></path><path d="M212 220m-20 0a20 20 0 1 0 40 0 20 20 0 1 0-40 0Z" fill="#92C438" p-id="7984"></path><path d="M140 220m-20 0a20 20 0 1 0 40 0 20 20 0 1 0-40 0Z" fill="#F74541" p-id="7985"></path><path d="M284 220m-20 0a20 20 0 1 0 40 0 20 20 0 1 0-40 0Z" fill="#FBD000" p-id="7986"></path></svg>