<?xml version="1.0" standalone="no"?><!DOCTYPE svg PUBLIC "-//W3C//DTD SVG 1.1//EN" "http://www.w3.org/Graphics/SVG/1.1/DTD/svg11.dtd"><svg t="1515826988434" class="icon" style="" viewBox="0 0 1024 1024" version="1.1" xmlns="http://www.w3.org/2000/svg" p-id="3898" xmlns:xlink="http://www.w3.org/1999/xlink" width="48" height="48"><defs><style type="text/css"></style></defs><path d="M0 544C0 563.2 6.4 576 12.8 595.2c6.4 12.8 12.8 25.6 25.6 38.4 12.8 12.8 25.6 19.2 38.4 25.6 19.2 6.4 32 12.8 51.2 12.8s32-6.4 51.2-12.8c12.8-6.4 25.6-12.8 38.4-25.6 12.8-12.8 19.2-25.6 25.6-38.4C249.6 576 256 563.2 256 544S249.6 512 243.2 492.8C236.8 480 230.4 467.2 217.6 454.4 204.8 441.6 192 435.2 179.2 428.8 160 422.4 147.2 416 128 416S96 422.4 76.8 428.8C64 435.2 51.2 441.6 38.4 454.4 25.6 467.2 19.2 480 12.8 492.8 6.4 512 0 524.8 0 544L0 544z" p-id="3899" fill="#e6e6e6"></path><path d="M384 544C384 563.2 390.4 576 396.8 595.2c6.4 12.8 12.8 25.6 25.6 38.4 12.8 12.8 25.6 19.2 38.4 25.6 19.2 6.4 32 12.8 51.2 12.8s32-6.4 51.2-12.8c12.8-6.4 25.6-12.8 38.4-25.6 12.8-12.8 19.2-25.6 25.6-38.4C633.6 576 640 563.2 640 544S633.6 512 627.2 492.8C620.8 480 614.4 467.2 601.6 454.4 588.8 441.6 576 435.2 563.2 428.8 544 422.4 531.2 416 512 416S480 422.4 460.8 428.8C448 435.2 435.2 441.6 422.4 454.4 409.6 467.2 403.2 480 396.8 492.8 390.4 512 384 524.8 384 544L384 544z" p-id="3900" fill="#e6e6e6"></path><path d="M768 544c0 19.2 6.4 32 12.8 51.2 6.4 12.8 12.8 32 25.6 38.4 12.8 12.8 25.6 19.2 38.4 25.6 19.2 6.4 32 12.8 51.2 12.8s32-6.4 51.2-12.8c12.8-6.4 32-12.8 38.4-25.6 12.8-12.8 19.2-25.6 25.6-38.4C1017.6 576 1024 563.2 1024 544S1017.6 512 1011.2 492.8c-6.4-12.8-12.8-32-25.6-38.4-12.8-12.8-25.6-19.2-38.4-25.6-19.2-6.4-32-12.8-51.2-12.8s-32 6.4-51.2 12.8c-12.8 6.4-32 12.8-38.4 25.6-12.8 12.8-19.2 25.6-25.6 38.4C774.4 512 768 524.8 768 544L768 544z" p-id="3901" fill="#e6e6e6"></path></svg>