<?xml version="1.0" standalone="no"?><!DOCTYPE svg PUBLIC "-//W3C//DTD SVG 1.1//EN" "http://www.w3.org/Graphics/SVG/1.1/DTD/svg11.dtd"><svg t="1516265522833" class="icon" style="" viewBox="0 0 1024 1024" version="1.1" xmlns="http://www.w3.org/2000/svg" p-id="4950" xmlns:xlink="http://www.w3.org/1999/xlink" width="48" height="48"><defs><style type="text/css"></style></defs><path d="M572.592 814.267h28.162c12.65-0.328 28.162-5.498 28.162-28.16V729.78c0-22.662-15.512-27.832-28.162-28.16h-28.162v112.646zM459.944 560.807v56.326c0 22.662 15.51 27.833 28.163 28.161h28.161v-112.65h-28.161c-12.655 0.333-28.163 5.502-28.163 28.163z" fill="#ffffff" p-id="4951"></path><path d="M663.84 328.408c10.068-10.176 16.28-24.093 16.28-39.494 0-30.362-24.148-54.785-54.29-55.883 18.868-12.487 163.307-110.396 110.615-154.838-56.326-47.525-181.296 45.269-225.299 41.75-44.003 3.519-168.972-89.274-225.297-41.75-52.696 44.442 91.717 142.351 110.586 154.838-30.089 1.098-54.261 25.52-54.261 55.883 0 15.401 6.242 29.318 16.252 39.494-141.882 76.732-241.55 257.093-241.55 467.427 0 38.78 3.686 76.347 10.12 112.65a1338.476 1338.476 0 0 0 768.302 0c6.433-36.303 10.12-73.87 10.12-112.65 0.002-210.334-99.666-390.695-241.578-467.427z m-68.206 298.454c33.993 0 84.486 22.497 84.486 84.487v56.325c0 61.992-50.495 84.488-84.486 84.488h-28.162v28.16c0 15.513-12.652 28.164-28.162 28.164-15.511 0-28.163-12.652-28.163-28.163v-28.161h-84.486c-15.513 0-28.163-12.651-28.163-28.164 0-15.509 12.651-28.163 28.163-28.163h84.486V683.188h-28.161c-33.996 0-84.488-22.497-84.488-84.487v-56.326c0-61.99 50.494-84.486 84.488-84.486h28.161v-28.161c0-15.513 12.65-28.163 28.163-28.163 15.51 0 28.162 12.652 28.162 28.163v28.16h84.487c15.512 0 28.161 12.654 28.161 28.163 0 15.511-12.65 28.16-28.16 28.16h-84.488v112.651h28.162z" fill="#ffffff" p-id="4952"></path></svg>