<?xml version="1.0" standalone="no"?><!DOCTYPE svg PUBLIC "-//W3C//DTD SVG 1.1//EN" "http://www.w3.org/Graphics/SVG/1.1/DTD/svg11.dtd"><svg t="1516721470620" class="icon" style="" viewBox="0 0 1024 1024" version="1.1" xmlns="http://www.w3.org/2000/svg" p-id="2927" xmlns:xlink="http://www.w3.org/1999/xlink" width="48" height="48"><defs><style type="text/css"></style></defs><path d="M867.388103 458.139302c-16.591887-5.012154-33.967626 4.321422-38.959314 20.821211-9.688663 31.974225-22.997784 62.149479-39.538505 89.701998-57.707306 96.117105-158.449755 151.241586-276.41547 151.241586-117.996414 0-218.759329-55.144948-276.456403-151.282518-16.521279-27.552519-29.80891-57.707306-39.488363-89.620134-5.012154-16.490579-22.438035-25.824155-38.959314-20.821211-16.500812 5.012154-25.824155 22.448268-20.821211 38.959314 11.17348 36.814464 26.545586 71.676459 45.710065 103.619986C245.514693 705.835683 355.673605 771.657808 481.241462 781.072225l0 147.536194c0 17.252943 13.979386 31.232328 31.232328 31.232328s31.232328-13.979386 31.232328-31.232328L543.706119 781.072225c125.523855-9.41544 235.669464-75.217099 298.741965-180.26255 19.174712-31.934317 34.577516-66.836221 45.76123-103.712083C893.211235 480.58757 883.888915 463.151455 867.388103 458.139302z" p-id="2928" fill="#515151"></path><path d="M881.625362 221.404576c-9.445116-22.174022-31.242562-36.804231-55.836703-37.282115l-9.587356-0.091074c-55.643298 0-106.48729 16.714683-151.333684 35.329646C625.685225 152.107303 589.156264 107.241466 551.081087 79.404468c-2.134617-1.839905-4.443196-3.558036-6.944156-5.164626-17.304108-11.041474-38.928614-12.830213-57.767682-4.818749-5.438872 2.287089-10.502192 5.317099-15.077394 9.03784-37.892005 27.369348-75.661214 73.190953-115.027803 139.631154-44.348044-17.954931-94.358041-34.089399-147.96803-34.089399l-9.445116 0.101307c-24.288173 0.488117-46.076408 15.108093-55.521524 37.261649-21.60404 50.701752-30.449499 111.1331-25.600051 174.757163 1.25048 16.389272 14.935154 28.853142 31.110555 28.853142 0.793062 0 1.596358-0.030699 2.409886-0.091074 17.192567-1.311879 30.073946-16.317641 28.762067-33.520441-4.066619-53.375651 3.009544-103.427604 20.48659-144.816247l8.112772-0.080841c52.034097 0 101.95302 19.652596 148.618852 39.783075 14.700817 6.324032 31.842219 0.539282 39.651069-13.470803 40.168862-72.04178 76.688613-119.195729 111.662149-144.165424 0.731664-0.518816 1.026376-1.341554 1.707898-1.932002 0.945535 0.873903 1.952468 1.697665 2.99931 2.449795 34.740222 25.02086 71.00517 72.469522 110.848621 145.040351 7.807826 14.213723 25.193799 20.079314 40.026622 13.532201 44.998867-19.937075 97.56099-41.206494 151.770636-41.206494l8.559956 0.080841c16.490579 39.060621 23.77038 86.204337 21.055548 136.418996-0.935302 17.222243 12.271488 31.94455 29.493731 32.869618 17.090237 1.209548 31.94455-12.261255 32.869618-29.493731C911.129326 326.387605 902.050554 269.331121 881.625362 221.404576z" p-id="2929" fill="#515151"></path><path d="M390.593929 332.030116c-17.252943 0-31.232328 13.979386-31.232328 31.232328l0 30.469965c0 17.252943 13.979386 31.232328 31.232328 31.232328 17.252943 0 31.232328-13.979386 31.232328-31.232328l0-30.469965C421.827281 346.009502 407.846872 332.030116 390.593929 332.030116z" p-id="2930" fill="#515151"></path><path d="M634.363885 332.030116c-17.252943 0-31.232328 13.979386-31.232328 31.232328l0 30.469965c0 17.252943 13.979386 31.232328 31.232328 31.232328s31.232328-13.979386 31.232328-31.232328l0-30.469965C665.597237 346.009502 651.617851 332.030116 634.363885 332.030116z" p-id="2931" fill="#515151"></path><path d="M589.500095 473.470475c-14.304797-9.404184-33.591049-5.38873-43.157939 8.763594-0.132006 0.193405-13.613042 19.753903-34.170241 19.753903-19.98824 0-32.432667-18.117636-33.265638-19.378349-9.181103-14.416338-28.284183-18.808368-42.832528-9.750061-14.650675 9.099239-19.154245 28.354791-10.044774 43.005466 11.214413 18.046005 41.968857 48.587602 86.143962 48.587602 43.961234 0 75.102489-30.317493 86.570681-48.221258C607.962585 501.836523 603.774193 482.874659 589.500095 473.470475z" p-id="2932" fill="#515151"></path><path d="M855.131965 756.199745c-10.279111-13.878079-29.819143-16.805758-43.686988-6.557346L603.228771 903.486252c-13.867846 10.248412-16.805758 29.80891-6.557346 43.686988 6.130627 8.28571 15.575744 12.667507 25.142633 12.667507 6.456039 0 12.95301-1.982144 18.544355-6.110161l208.216205-153.844877C862.441441 789.638321 865.380376 770.077823 855.131965 756.199745z" p-id="2933" fill="#515151"></path><path d="M421.730067 903.486252 213.513862 749.642398c-13.888312-10.248412-33.428344-7.319709-43.686988 6.557346-10.248412 13.878079-7.309476 33.438577 6.557346 43.686988l208.216205 153.844877c5.591345 4.128017 12.088316 6.110161 18.544355 6.110161 9.56689 0 19.012006-4.381797 25.142633-12.667507C438.535825 933.296185 435.597913 913.734664 421.730067 903.486252z" p-id="2934" fill="#515151"></path></svg>