<?xml version="1.0" standalone="no"?><!DOCTYPE svg PUBLIC "-//W3C//DTD SVG 1.1//EN" "http://www.w3.org/Graphics/SVG/1.1/DTD/svg11.dtd"><svg t="1516721400362" class="icon" style="" viewBox="0 0 1024 1024" version="1.1" xmlns="http://www.w3.org/2000/svg" p-id="2322" xmlns:xlink="http://www.w3.org/1999/xlink" width="48" height="48"><defs><style type="text/css"></style></defs><path d="M867.722724 661.451824c-16.711614-4.320399-33.683147 5.752004-37.972846 22.438035l-25.057699 97.423867c-0.147356 0.568958-0.279363 1.147126-0.396019 1.726318-7.061836 35.785018-30.185486 77.56968-72.117504 77.56968L291.774273 860.609723c-41.932018 0-65.055668-41.784662-72.117504-77.56968-0.116657-0.579191-0.248663-1.157359-0.396019-1.731434l-25.052582-97.398284c-4.284583-16.676821-21.255093-26.722618-37.977963-22.432918-16.681938 4.2897-26.727735 21.290909-22.432918 37.977963l24.839735 96.576569c12.817933 63.349817 58.826803 126.959553 133.137253 126.959553L732.179678 922.991492c74.31045 0 120.31932-63.61383 133.137253-126.959553l24.844851-96.606245C894.455575 682.742732 884.409778 665.741523 867.722724 661.451824z" p-id="2323" fill="#1296db"></path><path d="M958.88498 377.505843c-3.152806-32.363082-23.317055-57.177234-54.293557-66.598814-22.641673-6.858198-46.587038-3.051499-67.457368 10.741645-38.98285 25.854854-77.975932 51.633984-117.003807 77.412091l-98.41852-108.343567c8.219195-14.666024 13.43294-30.859845 15.341407-47.901986 4.157693-37.144992-8.025791-73.950246-33.429367-100.977809-24.215518-25.748431-56.92857-40.018436-92.28687-40.186258-35.246759 0.025583-67.995627 13.960966-92.210122 39.231513-25.748431 26.854625-38.287001 63.639412-34.398438 100.936877 1.817392 17.366529 7.072069 33.885761 15.44783 48.836265l-97.677647 107.531062c-38.571481-25.484418-77.132728-50.973952-115.714442-76.564793-20.839631-13.772678-44.769646-17.570167-67.452251-10.706853-30.946826 9.41237-51.111075 34.226522-54.257741 66.588581-0.517793 3.00545-0.776689 6.02625-0.776689 9.006118 0 2.619664 0.329505 5.234211 0.984421 7.766894l50.176796 195.081047c3.619434 14.077623 16.291035 23.428595 30.185486 23.423479 2.568499 0 5.183046-0.320295 7.792477-0.989537 16.681938-4.2897 26.727735-21.290909 22.432918-37.977963l-48.765657-189.588963c0.005117-0.030699 0.005117-0.056282 0.005117-0.080841 0.670266-8.828063 4.634554-11.802814 10.340509-13.539364 4.822842-1.441838 9.579169-0.497327 14.894222 3.025916 39.733956 26.357298 79.493495 52.638871 119.263268 78.910211l18.808368 12.42703c12.848633 8.488325 29.946033 6.330172 40.282448-5.051039l132.49257-145.858996c10.782577-11.874445 10.80816-29.986965 0.051165-41.886993-9.335622-10.326183-15.026228-23.067368-16.468067-36.830837-1.980097-19.006889 4.350075-37.6986 17.386996-51.293223 12.534478-13.081946 28.865421-20.001543 47.054689-20.016893 17.909905 0.085958 34.586726 7.381108 46.958498 20.534685 12.848633 13.671371 19.001773 32.373315 16.884552 51.313689-1.52268 13.599739-7.188726 26.149567-16.387225 36.287461-10.797927 11.893888-10.79281 30.043247 0.005117 41.932018l132.47722 145.833413c6.451946 7.101745 15.366989 10.518564 24.337291 10.194176 6.142907 0.152473 12.493545-1.487887 18.057261-5.157463l18.793018-12.421914c39.774889-26.276457 79.534428-52.557006 119.237685-78.889745 5.355985-3.538593 10.086729-4.507664 14.894222-3.060709 5.741771 1.746784 9.706059 4.721535 10.376325 13.549597 0 0.025583 0 0.051165 0.005117 0.080841l-48.76054 189.568497c-4.294816 16.687054 5.752004 33.688263 22.432918 37.977963 16.697287 4.264117 33.688263-5.767354 37.977963-22.432918l50.17168-195.056488c0.654916-2.537799 0.984421-5.152347 0.984421-7.772011C959.661669 383.532093 959.402773 380.511293 958.88498 377.505843z" p-id="2324" fill="#1296db"></path><path d="M390.261355 514.13564c-17.22429 0-31.190373 13.966083-31.190373 31.190373l0 30.429033c0 17.22429 13.96506 31.190373 31.190373 31.190373 17.22429 0 31.190373-13.966083 31.190373-31.190373l0-30.429033C421.451728 528.101723 407.485645 514.13564 390.261355 514.13564z" p-id="2325" fill="#1296db"></path><path d="M633.69669 514.13564c-17.22429 0-31.190373 13.966083-31.190373 31.190373l0 30.429033c0 17.22429 13.966083 31.190373 31.190373 31.190373s31.190373-13.966083 31.190373-31.190373l0-30.429033C664.887063 528.101723 650.92098 514.13564 633.69669 514.13564z" p-id="2326" fill="#1296db"></path><path d="M588.668147 654.999878c-14.528901-9.289574-33.80492-5.061272-43.089377 9.442046-0.121773 0.197498-13.361309 19.422352-33.921577 19.422352-19.981077 0-32.409131-18.113543-33.230845-19.351744-9.162684-14.391778-28.225855-18.768459-42.775222-9.741875-14.630209 9.092076-19.11843 28.327162-10.031471 42.957371 11.199063 18.016329 41.921785 48.516993 86.037539 48.516993 43.896766 0 74.996065-30.271444 86.453001-48.155766C607.399767 683.58082 603.171466 664.289452 588.668147 654.999878z" p-id="2327" fill="#1296db"></path></svg>