<?xml version="1.0" standalone="no"?><!DOCTYPE svg PUBLIC "-//W3C//DTD SVG 1.1//EN" "http://www.w3.org/Graphics/SVG/1.1/DTD/svg11.dtd"><svg t="1516759831673" class="icon" style="" viewBox="0 0 1024 1024" version="1.1" xmlns="http://www.w3.org/2000/svg" p-id="8526" xmlns:xlink="http://www.w3.org/1999/xlink" width="48" height="48"><defs><style type="text/css"></style></defs><path d="M236.8 960.8c33 0 60-27 60-60s-27-60-60-60-60 27-60 60c0 33.1 27 60 60 60z" fill="#4C0094" p-id="8527"></path><path d="M236.8 888.8m-60 0a60 60 0 1 0 120 0 60 60 0 1 0-120 0Z" fill="#4C0395" p-id="8528"></path><path d="M236.8 876.8m-60 0a60 60 0 1 0 120 0 60 60 0 1 0-120 0Z" fill="#4C0596" p-id="8529"></path><path d="M236.8 864.8m-60 0a60 60 0 1 0 120 0 60 60 0 1 0-120 0Z" fill="#4D0897" p-id="8530"></path><path d="M236.8 852.7m-60 0a60 60 0 1 0 120 0 60 60 0 1 0-120 0Z" fill="#4D0A98" p-id="8531"></path><path d="M236.8 840.7m-60 0a60 60 0 1 0 120 0 60 60 0 1 0-120 0Z" fill="#4D0D99" p-id="8532"></path><path d="M236.8 828.7m-60 0a60 60 0 1 0 120 0 60 60 0 1 0-120 0Z" fill="#4D0F9A" p-id="8533"></path><path d="M236.8 816.7m-60 0a60 60 0 1 0 120 0 60 60 0 1 0-120 0Z" fill="#4D129B" p-id="8534"></path><path d="M236.8 804.7m-60 0a60 60 0 1 0 120 0 60 60 0 1 0-120 0Z" fill="#4D149C" p-id="8535"></path><path d="M236.8 792.6m-60 0a60 60 0 1 0 120 0 60 60 0 1 0-120 0Z" fill="#4E179D" p-id="8536"></path><path d="M236.8 780.6m-60 0a60 60 0 1 0 120 0 60 60 0 1 0-120 0Z" fill="#4E199E" p-id="8537"></path><path d="M236.8 768.6m-60 0a60 60 0 1 0 120 0 60 60 0 1 0-120 0Z" fill="#4E1C9F" p-id="8538"></path><path d="M236.8 756.6m-60 0a60 60 0 1 0 120 0 60 60 0 1 0-120 0Z" fill="#4E1EA0" p-id="8539"></path><path d="M236.8 744.5m-60 0a60 60 0 1 0 120 0 60 60 0 1 0-120 0Z" fill="#4E21A1" p-id="8540"></path><path d="M236.8 732.5m-60 0a60 60 0 1 0 120 0 60 60 0 1 0-120 0Z" fill="#4E23A2" p-id="8541"></path><path d="M236.8 720.5m-60 0a60 60 0 1 0 120 0 60 60 0 1 0-120 0Z" fill="#4F26A3" p-id="8542"></path><path d="M236.8 708.5m-60 0a60 60 0 1 0 120 0 60 60 0 1 0-120 0Z" fill="#4F28A4" p-id="8543"></path><path d="M236.8 696.4m-60 0a60 60 0 1 0 120 0 60 60 0 1 0-120 0Z" fill="#4F2BA5" p-id="8544"></path><path d="M236.8 684.4m-60 0a60 60 0 1 0 120 0 60 60 0 1 0-120 0Z" fill="#4F2DA6" p-id="8545"></path><path d="M236.8 672.4m-60 0a60 60 0 1 0 120 0 60 60 0 1 0-120 0Z" fill="#4F30A7" p-id="8546"></path><path d="M236.8 660.4m-60 0a60 60 0 1 0 120 0 60 60 0 1 0-120 0Z" fill="#5032A8" p-id="8547"></path><path d="M236.8 648.3m-60 0a60 60 0 1 0 120 0 60 60 0 1 0-120 0Z" fill="#5035A9" p-id="8548"></path><path d="M236.8 636.3m-60 0a60 60 0 1 0 120 0 60 60 0 1 0-120 0Z" fill="#5038AA" p-id="8549"></path><path d="M236.8 624.3m-60 0a60 60 0 1 0 120 0 60 60 0 1 0-120 0Z" fill="#503AAB" p-id="8550"></path><path d="M236.8 612.3m-60 0a60 60 0 1 0 120 0 60 60 0 1 0-120 0Z" fill="#503DAC" p-id="8551"></path><path d="M236.8 600.2m-60 0a60 60 0 1 0 120 0 60 60 0 1 0-120 0Z" fill="#503FAD" p-id="8552"></path><path d="M247.2 598.6m-60 0a60 60 0 1 0 120 0 60 60 0 1 0-120 0Z" fill="#5142AE" p-id="8553"></path><path d="M259.2 598.6m-60 0a60 60 0 1 0 120 0 60 60 0 1 0-120 0Z" fill="#5144AF" p-id="8554"></path><path d="M271.2 598.6m-60 0a60 60 0 1 0 120 0 60 60 0 1 0-120 0Z" fill="#5147B0" p-id="8555"></path><path d="M283.3 598.6m-60 0a60 60 0 1 0 120 0 60 60 0 1 0-120 0Z" fill="#5149B1" p-id="8556"></path><path d="M295.3 598.6m-60 0a60 60 0 1 0 120 0 60 60 0 1 0-120 0Z" fill="#514CB2" p-id="8557"></path><path d="M307.3 598.6m-60 0a60 60 0 1 0 120 0 60 60 0 1 0-120 0Z" fill="#524EB3" p-id="8558"></path><path d="M319.3 598.6m-60 0a60 60 0 1 0 120 0 60 60 0 1 0-120 0Z" fill="#5251B4" p-id="8559"></path><path d="M331.4 598.6m-60 0a60 60 0 1 0 120 0 60 60 0 1 0-120 0Z" fill="#5253B5" p-id="8560"></path><path d="M343.4 598.6m-60 0a60 60 0 1 0 120 0 60 60 0 1 0-120 0Z" fill="#5256B6" p-id="8561"></path><path d="M355.4 598.6m-60 0a60 60 0 1 0 120 0 60 60 0 1 0-120 0Z" fill="#5258B7" p-id="8562"></path><path d="M367.4 598.6m-60 0a60 60 0 1 0 120 0 60 60 0 1 0-120 0Z" fill="#525BB8" p-id="8563"></path><path d="M379.4 598.6m-60 0a60 60 0 1 0 120 0 60 60 0 1 0-120 0Z" fill="#535DB9" p-id="8564"></path><path d="M391.5 598.6m-60 0a60 60 0 1 0 120 0 60 60 0 1 0-120 0Z" fill="#5360BA" p-id="8565"></path><path d="M391.8 595.6m-60 0a60 60 0 1 0 120 0 60 60 0 1 0-120 0Z" fill="#5362BB" p-id="8566"></path><path d="M379.8 595.6m-60 0a60 60 0 1 0 120 0 60 60 0 1 0-120 0Z" fill="#5365BC" p-id="8567"></path><path d="M367.8 595.6m-60 0a60 60 0 1 0 120 0 60 60 0 1 0-120 0Z" fill="#5368BD" p-id="8568"></path><path d="M355.8 595.6m-60 0a60 60 0 1 0 120 0 60 60 0 1 0-120 0Z" fill="#536ABE" p-id="8569"></path><path d="M343.7 595.6m-60 0a60 60 0 1 0 120 0 60 60 0 1 0-120 0Z" fill="#546DBF" p-id="8570"></path><path d="M331.7 595.6m-60 0a60 60 0 1 0 120 0 60 60 0 1 0-120 0Z" fill="#546FC0" p-id="8571"></path><path d="M319.7 595.6m-60 0a60 60 0 1 0 120 0 60 60 0 1 0-120 0Z" fill="#5472C1" p-id="8572"></path><path d="M307.7 595.6m-60 0a60 60 0 1 0 120 0 60 60 0 1 0-120 0Z" fill="#5474C2" p-id="8573"></path><path d="M295.6 595.6m-60 0a60 60 0 1 0 120 0 60 60 0 1 0-120 0Z" fill="#5477C3" p-id="8574"></path><path d="M283.6 595.6m-60 0a60 60 0 1 0 120 0 60 60 0 1 0-120 0Z" fill="#5579C4" p-id="8575"></path><path d="M271.6 595.6m-60 0a60 60 0 1 0 120 0 60 60 0 1 0-120 0Z" fill="#557CC5" p-id="8576"></path><path d="M259.6 595.6m-60 0a60 60 0 1 0 120 0 60 60 0 1 0-120 0Z" fill="#557EC6" p-id="8577"></path><path d="M247.5 595.6m-60 0a60 60 0 1 0 120 0 60 60 0 1 0-120 0Z" fill="#5581C8" p-id="8578"></path><path d="M236.8 594.3m-60 0a60 60 0 1 0 120 0 60 60 0 1 0-120 0Z" fill="#5583C9" p-id="8579"></path><path d="M236.8 582.3m-60 0a60 60 0 1 0 120 0 60 60 0 1 0-120 0Z" fill="#5586CA" p-id="8580"></path><path d="M236.8 570.2m-60 0a60 60 0 1 0 120 0 60 60 0 1 0-120 0Z" fill="#5688CB" p-id="8581"></path><path d="M236.8 558.2m-60 0a60 60 0 1 0 120 0 60 60 0 1 0-120 0Z" fill="#568BCC" p-id="8582"></path><path d="M236.8 546.2m-60 0a60 60 0 1 0 120 0 60 60 0 1 0-120 0Z" fill="#568DCD" p-id="8583"></path><path d="M236.8 534.2m-60 0a60 60 0 1 0 120 0 60 60 0 1 0-120 0Z" fill="#5690CE" p-id="8584"></path><path d="M236.8 522.1m-60 0a60 60 0 1 0 120 0 60 60 0 1 0-120 0Z" fill="#5692CF" p-id="8585"></path><path d="M236.8 510.1m-60 0a60 60 0 1 0 120 0 60 60 0 1 0-120 0Z" fill="#5795D0" p-id="8586"></path><path d="M236.8 498.1m-60 0a60 60 0 1 0 120 0 60 60 0 1 0-120 0Z" fill="#5797D1" p-id="8587"></path><path d="M236.8 486.1m-60 0a60 60 0 1 0 120 0 60 60 0 1 0-120 0Z" fill="#579AD2" p-id="8588"></path><path d="M236.8 474.1m-60 0a60 60 0 1 0 120 0 60 60 0 1 0-120 0Z" fill="#579DD3" p-id="8589"></path><path d="M236.8 462m-60 0a60 60 0 1 0 120 0 60 60 0 1 0-120 0Z" fill="#579FD4" p-id="8590"></path><path d="M236.8 450m-60 0a60 60 0 1 0 120 0 60 60 0 1 0-120 0Z" fill="#57A2D5" p-id="8591"></path><path d="M236.8 438m-60 0a60 60 0 1 0 120 0 60 60 0 1 0-120 0Z" fill="#58A4D6" p-id="8592"></path><path d="M236.8 426m-60 0a60 60 0 1 0 120 0 60 60 0 1 0-120 0Z" fill="#58A7D7" p-id="8593"></path><path d="M236.8 413.9m-60 0a60 60 0 1 0 120 0 60 60 0 1 0-120 0Z" fill="#58A9D8" p-id="8594"></path><path d="M236.8 401.9m-60 0a60 60 0 1 0 120 0 60 60 0 1 0-120 0Z" fill="#58ACD9" p-id="8595"></path><path d="M236.8 389.9m-60 0a60 60 0 1 0 120 0 60 60 0 1 0-120 0Z" fill="#58AEDA" p-id="8596"></path><path d="M236.8 377.9m-60 0a60 60 0 1 0 120 0 60 60 0 1 0-120 0Z" fill="#58B1DB" p-id="8597"></path><path d="M236.8 365.8m-60 0a60 60 0 1 0 120 0 60 60 0 1 0-120 0Z" fill="#59B3DC" p-id="8598"></path><path d="M236.8 353.8m-60 0a60 60 0 1 0 120 0 60 60 0 1 0-120 0Z" fill="#59B6DD" p-id="8599"></path><path d="M236.8 341.8m-60 0a60 60 0 1 0 120 0 60 60 0 1 0-120 0Z" fill="#59B8DE" p-id="8600"></path><path d="M236.8 329.8m-60 0a60 60 0 1 0 120 0 60 60 0 1 0-120 0Z" fill="#59BBDF" p-id="8601"></path><path d="M236.8 317.7m-60 0a60 60 0 1 0 120 0 60 60 0 1 0-120 0Z" fill="#59BDE0" p-id="8602"></path><path d="M236.8 305.7m-60 0a60 60 0 1 0 120 0 60 60 0 1 0-120 0Z" fill="#5AC0E1" p-id="8603"></path><path d="M236.8 293.7m-60 0a60 60 0 1 0 120 0 60 60 0 1 0-120 0Z" fill="#5AC2E2" p-id="8604"></path><path d="M236.8 281.7m-60 0a60 60 0 1 0 120 0 60 60 0 1 0-120 0Z" fill="#5AC5E3" p-id="8605"></path><path d="M236.8 269.6m-60 0a60 60 0 1 0 120 0 60 60 0 1 0-120 0Z" fill="#5AC7E4" p-id="8606"></path><path d="M236.8 257.6m-60 0a60 60 0 1 0 120 0 60 60 0 1 0-120 0Z" fill="#5ACAE5" p-id="8607"></path><path d="M236.8 245.6m-60 0a60 60 0 1 0 120 0 60 60 0 1 0-120 0Z" fill="#5ACDE6" p-id="8608"></path><path d="M236.8 233.6m-60 0a60 60 0 1 0 120 0 60 60 0 1 0-120 0Z" fill="#5BCFE7" p-id="8609"></path><path d="M236.8 221.5m-60 0a60 60 0 1 0 120 0 60 60 0 1 0-120 0Z" fill="#5BD2E8" p-id="8610"></path><path d="M236.8 209.5m-60 0a60 60 0 1 0 120 0 60 60 0 1 0-120 0Z" fill="#5BD4E9" p-id="8611"></path><path d="M236.8 197.5m-60 0a60 60 0 1 0 120 0 60 60 0 1 0-120 0Z" fill="#5BD7EA" p-id="8612"></path><path d="M236.8 185.5m-60 0a60 60 0 1 0 120 0 60 60 0 1 0-120 0Z" fill="#5BD9EB" p-id="8613"></path><path d="M236.8 173.5m-60 0a60 60 0 1 0 120 0 60 60 0 1 0-120 0Z" fill="#5CDCEC" p-id="8614"></path><path d="M236.8 161.4m-60 0a60 60 0 1 0 120 0 60 60 0 1 0-120 0Z" fill="#5CDEED" p-id="8615"></path><path d="M236.8 149.4m-60 0a60 60 0 1 0 120 0 60 60 0 1 0-120 0Z" fill="#5CE1EE" p-id="8616"></path><path d="M236.8 137.4m-60 0a60 60 0 1 0 120 0 60 60 0 1 0-120 0Z" fill="#5CE3EF" p-id="8617"></path><path d="M236.8 125.4m-60 0a60 60 0 1 0 120 0 60 60 0 1 0-120 0Z" fill="#5CE6F0" p-id="8618"></path><path d="M239.9 123.2m-60 0a60 60 0 1 0 120 0 60 60 0 1 0-120 0Z" fill="#5CE8F1" p-id="8619"></path><path d="M246.8 133m-60 0a60 60 0 1 0 120 0 60 60 0 1 0-120 0Z" fill="#5DEBF2" p-id="8620"></path><path d="M253.8 142.8m-60 0a60 60 0 1 0 120 0 60 60 0 1 0-120 0Z" fill="#5DEDF3" p-id="8621"></path><path d="M260.7 152.7m-60 0a60 60 0 1 0 120 0 60 60 0 1 0-120 0Z" fill="#5DF0F4" p-id="8622"></path><path d="M267.6 162.5m-60 0a60 60 0 1 0 120 0 60 60 0 1 0-120 0Z" fill="#5DF2F5" p-id="8623"></path><path d="M274.5 172.3m-60 0a60 60 0 1 0 120 0 60 60 0 1 0-120 0Z" fill="#5DF5F6" p-id="8624"></path><path d="M281.4 182.2m-60 0a60 60 0 1 0 120 0 60 60 0 1 0-120 0Z" fill="#5DF7F7" p-id="8625"></path><path d="M288.4 192m-60 0a60 60 0 1 0 120 0 60 60 0 1 0-120 0Z" fill="#5EFAF8" p-id="8626"></path><path d="M295.3 201.8m-60 0a60 60 0 1 0 120 0 60 60 0 1 0-120 0Z" fill="#5EFCF9" p-id="8627"></path><path d="M302.2 271.7c33 0 60-27 60-60s-27-60-60-60-60 27-60 60 27 60 60 60z" fill="#5EFFFA" p-id="8628"></path><path d="M307 218.5m-60 0a60 60 0 1 0 120 0 60 60 0 1 0-120 0Z" fill="#5EFDFA" p-id="8629"></path><path d="M311.8 225.3m-60 0a60 60 0 1 0 120 0 60 60 0 1 0-120 0Z" fill="#5EFBFA" p-id="8630"></path><path d="M316.6 232.1m-60 0a60 60 0 1 0 120 0 60 60 0 1 0-120 0Z" fill="#5FF9FA" p-id="8631"></path><path d="M321.4 239m-60 0a60 60 0 1 0 120 0 60 60 0 1 0-120 0Z" fill="#5FF7FA" p-id="8632"></path><path d="M326.2 245.8m-60 0a60 60 0 1 0 120 0 60 60 0 1 0-120 0Z" fill="#5FF5FA" p-id="8633"></path><path d="M331 252.6m-60 0a60 60 0 1 0 120 0 60 60 0 1 0-120 0Z" fill="#5FF3FA" p-id="8634"></path><path d="M335.8 259.4m-60 0a60 60 0 1 0 120 0 60 60 0 1 0-120 0Z" fill="#60F2FA" p-id="8635"></path><path d="M340.6 266.2m-60 0a60 60 0 1 0 120 0 60 60 0 1 0-120 0Z" fill="#60F0FA" p-id="8636"></path><path d="M345.4 273.1m-60 0a60 60 0 1 0 120 0 60 60 0 1 0-120 0Z" fill="#60EEFA" p-id="8637"></path><path d="M350.2 279.9m-60 0a60 60 0 1 0 120 0 60 60 0 1 0-120 0Z" fill="#60ECFA" p-id="8638"></path><path d="M355 286.7m-60 0a60 60 0 1 0 120 0 60 60 0 1 0-120 0Z" fill="#61EAFB" p-id="8639"></path><path d="M359.8 293.5m-60 0a60 60 0 1 0 120 0 60 60 0 1 0-120 0Z" fill="#61E8FB" p-id="8640"></path><path d="M364.6 300.4m-60 0a60 60 0 1 0 120 0 60 60 0 1 0-120 0Z" fill="#61E6FB" p-id="8641"></path><path d="M369.4 307.2m-60 0a60 60 0 1 0 120 0 60 60 0 1 0-120 0Z" fill="#61E4FB" p-id="8642"></path><path d="M374.2 314m-60 0a60 60 0 1 0 120 0 60 60 0 1 0-120 0Z" fill="#62E2FB" p-id="8643"></path><path d="M379 320.8m-60 0a60 60 0 1 0 120 0 60 60 0 1 0-120 0Z" fill="#62E0FB" p-id="8644"></path><path d="M383.8 327.7m-60 0a60 60 0 1 0 120 0 60 60 0 1 0-120 0Z" fill="#62DEFB" p-id="8645"></path><path d="M388.6 334.5m-60 0a60 60 0 1 0 120 0 60 60 0 1 0-120 0Z" fill="#62DCFB" p-id="8646"></path><path d="M393.4 341.3m-60 0a60 60 0 1 0 120 0 60 60 0 1 0-120 0Z" fill="#63DBFB" p-id="8647"></path><path d="M398.2 348.1m-60 0a60 60 0 1 0 120 0 60 60 0 1 0-120 0Z" fill="#63D9FB" p-id="8648"></path><path d="M403 355m-60 0a60 60 0 1 0 120 0 60 60 0 1 0-120 0Z" fill="#63D7FB" p-id="8649"></path><path d="M407.8 361.8m-60 0a60 60 0 1 0 120 0 60 60 0 1 0-120 0Z" fill="#63D5FB" p-id="8650"></path><path d="M412.6 368.6m-60 0a60 60 0 1 0 120 0 60 60 0 1 0-120 0Z" fill="#64D3FB" p-id="8651"></path><path d="M417.4 375.4m-60 0a60 60 0 1 0 120 0 60 60 0 1 0-120 0Z" fill="#64D1FB" p-id="8652"></path><path d="M422.2 382.2m-60 0a60 60 0 1 0 120 0 60 60 0 1 0-120 0Z" fill="#64CFFB" p-id="8653"></path><path d="M427.1 389.1m-60 0a60 60 0 1 0 120 0 60 60 0 1 0-120 0Z" fill="#64CDFB" p-id="8654"></path><path d="M431.9 395.9m-60 0a60 60 0 1 0 120 0 60 60 0 1 0-120 0Z" fill="#65CBFB" p-id="8655"></path><path d="M436.7 402.7m-60 0a60 60 0 1 0 120 0 60 60 0 1 0-120 0Z" fill="#65C9FB" p-id="8656"></path><path d="M441.5 409.5m-60 0a60 60 0 1 0 120 0 60 60 0 1 0-120 0Z" fill="#65C7FB" p-id="8657"></path><path d="M446.3 416.4m-60 0a60 60 0 1 0 120 0 60 60 0 1 0-120 0Z" fill="#65C5FB" p-id="8658"></path><path d="M451.1 423.2m-60 0a60 60 0 1 0 120 0 60 60 0 1 0-120 0Z" fill="#66C3FC" p-id="8659"></path><path d="M455.9 430m-60 0a60 60 0 1 0 120 0 60 60 0 1 0-120 0Z" fill="#66C2FC" p-id="8660"></path><path d="M460.7 436.8m-60 0a60 60 0 1 0 120 0 60 60 0 1 0-120 0Z" fill="#66C0FC" p-id="8661"></path><path d="M465.5 443.7m-60 0a60 60 0 1 0 120 0 60 60 0 1 0-120 0Z" fill="#66BEFC" p-id="8662"></path><path d="M470.3 450.5m-60 0a60 60 0 1 0 120 0 60 60 0 1 0-120 0Z" fill="#67BCFC" p-id="8663"></path><path d="M475.1 457.3m-60 0a60 60 0 1 0 120 0 60 60 0 1 0-120 0Z" fill="#67BAFC" p-id="8664"></path><path d="M479.9 464.1m-60 0a60 60 0 1 0 120 0 60 60 0 1 0-120 0Z" fill="#67B8FC" p-id="8665"></path><path d="M484.7 471m-60 0a60 60 0 1 0 120 0 60 60 0 1 0-120 0Z" fill="#67B6FC" p-id="8666"></path><path d="M489.5 477.8m-60 0a60 60 0 1 0 120 0 60 60 0 1 0-120 0Z" fill="#68B4FC" p-id="8667"></path><path d="M494.3 484.6m-60 0a60 60 0 1 0 120 0 60 60 0 1 0-120 0Z" fill="#68B2FC" p-id="8668"></path><path d="M499.1 491.4m-60 0a60 60 0 1 0 120 0 60 60 0 1 0-120 0Z" fill="#68B0FC" p-id="8669"></path><path d="M503.9 498.3m-60 0a60 60 0 1 0 120 0 60 60 0 1 0-120 0Z" fill="#68AEFC" p-id="8670"></path><path d="M508.7 505.1m-60 0a60 60 0 1 0 120 0 60 60 0 1 0-120 0Z" fill="#69ACFC" p-id="8671"></path><path d="M513.5 511.9m-60 0a60 60 0 1 0 120 0 60 60 0 1 0-120 0Z" fill="#69AAFC" p-id="8672"></path><path d="M518.3 518.7m-60 0a60 60 0 1 0 120 0 60 60 0 1 0-120 0Z" fill="#69A9FC" p-id="8673"></path><path d="M523.1 525.5m-60 0a60 60 0 1 0 120 0 60 60 0 1 0-120 0Z" fill="#69A7FC" p-id="8674"></path><path d="M527.9 532.4m-60 0a60 60 0 1 0 120 0 60 60 0 1 0-120 0Z" fill="#6AA5FC" p-id="8675"></path><path d="M532.7 539.2m-60 0a60 60 0 1 0 120 0 60 60 0 1 0-120 0Z" fill="#6AA3FC" p-id="8676"></path><path d="M537.5 546m-60 0a60 60 0 1 0 120 0 60 60 0 1 0-120 0Z" fill="#6AA1FC" p-id="8677"></path><path d="M542.3 552.8m-60 0a60 60 0 1 0 120 0 60 60 0 1 0-120 0Z" fill="#6A9FFC" p-id="8678"></path><path d="M547.1 559.7m-60 0a60 60 0 1 0 120 0 60 60 0 1 0-120 0Z" fill="#6B9DFD" p-id="8679"></path><path d="M551.9 566.5m-60 0a60 60 0 1 0 120 0 60 60 0 1 0-120 0Z" fill="#6B9BFD" p-id="8680"></path><path d="M556.7 573.3m-60 0a60 60 0 1 0 120 0 60 60 0 1 0-120 0Z" fill="#6B99FD" p-id="8681"></path><path d="M561.5 580.1m-60 0a60 60 0 1 0 120 0 60 60 0 1 0-120 0Z" fill="#6B97FD" p-id="8682"></path><path d="M566.3 587m-60 0a60 60 0 1 0 120 0 60 60 0 1 0-120 0Z" fill="#6C95FD" p-id="8683"></path><path d="M571.1 593.8m-60 0a60 60 0 1 0 120 0 60 60 0 1 0-120 0Z" fill="#6C93FD" p-id="8684"></path><path d="M575.9 600.6m-60 0a60 60 0 1 0 120 0 60 60 0 1 0-120 0Z" fill="#6C92FD" p-id="8685"></path><path d="M580.7 607.4m-60 0a60 60 0 1 0 120 0 60 60 0 1 0-120 0Z" fill="#6C90FD" p-id="8686"></path><path d="M585.5 614.3m-60 0a60 60 0 1 0 120 0 60 60 0 1 0-120 0Z" fill="#6D8EFD" p-id="8687"></path><path d="M590.3 621.1m-60 0a60 60 0 1 0 120 0 60 60 0 1 0-120 0Z" fill="#6D8CFD" p-id="8688"></path><path d="M595.1 627.9m-60 0a60 60 0 1 0 120 0 60 60 0 1 0-120 0Z" fill="#6D8AFD" p-id="8689"></path><path d="M599.9 634.7m-60 0a60 60 0 1 0 120 0 60 60 0 1 0-120 0Z" fill="#6D88FD" p-id="8690"></path><path d="M604.7 641.5m-60 0a60 60 0 1 0 120 0 60 60 0 1 0-120 0Z" fill="#6E86FD" p-id="8691"></path><path d="M609.5 648.4m-60 0a60 60 0 1 0 120 0 60 60 0 1 0-120 0Z" fill="#6E84FD" p-id="8692"></path><path d="M614.3 655.2m-60 0a60 60 0 1 0 120 0 60 60 0 1 0-120 0Z" fill="#6E82FD" p-id="8693"></path><path d="M619.1 662m-60 0a60 60 0 1 0 120 0 60 60 0 1 0-120 0Z" fill="#6E80FD" p-id="8694"></path><path d="M623.9 668.8m-60 0a60 60 0 1 0 120 0 60 60 0 1 0-120 0Z" fill="#6F7EFD" p-id="8695"></path><path d="M628.7 675.7m-60 0a60 60 0 1 0 120 0 60 60 0 1 0-120 0Z" fill="#6F7CFD" p-id="8696"></path><path d="M633.5 682.5m-60 0a60 60 0 1 0 120 0 60 60 0 1 0-120 0Z" fill="#6F7AFD" p-id="8697"></path><path d="M638.3 689.3m-60 0a60 60 0 1 0 120 0 60 60 0 1 0-120 0Z" fill="#6F79FD" p-id="8698"></path><path d="M643.1 696.1m-60 0a60 60 0 1 0 120 0 60 60 0 1 0-120 0Z" fill="#7077FE" p-id="8699"></path><path d="M647.9 703m-60 0a60 60 0 1 0 120 0 60 60 0 1 0-120 0Z" fill="#7075FE" p-id="8700"></path><path d="M652.7 709.8m-60 0a60 60 0 1 0 120 0 60 60 0 1 0-120 0Z" fill="#7073FE" p-id="8701"></path><path d="M657.5 716.6m-60 0a60 60 0 1 0 120 0 60 60 0 1 0-120 0Z" fill="#7071FE" p-id="8702"></path><path d="M662.3 723.4m-60 0a60 60 0 1 0 120 0 60 60 0 1 0-120 0Z" fill="#716FFE" p-id="8703"></path><path d="M667.1 730.3m-60 0a60 60 0 1 0 120 0 60 60 0 1 0-120 0Z" fill="#716DFE" p-id="8704"></path><path d="M671.9 737.1m-60 0a60 60 0 1 0 120 0 60 60 0 1 0-120 0Z" fill="#716BFE" p-id="8705"></path><path d="M676.7 743.9m-60 0a60 60 0 1 0 120 0 60 60 0 1 0-120 0Z" fill="#7169FE" p-id="8706"></path><path d="M681.5 750.7m-60 0a60 60 0 1 0 120 0 60 60 0 1 0-120 0Z" fill="#7267FE" p-id="8707"></path><path d="M686.3 757.5m-60 0a60 60 0 1 0 120 0 60 60 0 1 0-120 0Z" fill="#7265FE" p-id="8708"></path><path d="M691.1 764.4m-60 0a60 60 0 1 0 120 0 60 60 0 1 0-120 0Z" fill="#7263FE" p-id="8709"></path><path d="M695.9 771.2m-60 0a60 60 0 1 0 120 0 60 60 0 1 0-120 0Z" fill="#7261FE" p-id="8710"></path><path d="M700.8 778m-60 0a60 60 0 1 0 120 0 60 60 0 1 0-120 0Z" fill="#7360FE" p-id="8711"></path><path d="M705.6 784.8m-60 0a60 60 0 1 0 120 0 60 60 0 1 0-120 0Z" fill="#735EFE" p-id="8712"></path><path d="M710.4 791.7m-60 0a60 60 0 1 0 120 0 60 60 0 1 0-120 0Z" fill="#735CFE" p-id="8713"></path><path d="M715.2 798.5m-60 0a60 60 0 1 0 120 0 60 60 0 1 0-120 0Z" fill="#735AFE" p-id="8714"></path><path d="M720 805.3m-60 0a60 60 0 1 0 120 0 60 60 0 1 0-120 0Z" fill="#7458FE" p-id="8715"></path><path d="M724.8 812.1m-60 0a60 60 0 1 0 120 0 60 60 0 1 0-120 0Z" fill="#7456FE" p-id="8716"></path><path d="M729.6 819m-60 0a60 60 0 1 0 120 0 60 60 0 1 0-120 0Z" fill="#7454FE" p-id="8717"></path><path d="M734.4 825.8m-60 0a60 60 0 1 0 120 0 60 60 0 1 0-120 0Z" fill="#7452FE" p-id="8718"></path><path d="M739.2 832.6m-60 0a60 60 0 1 0 120 0 60 60 0 1 0-120 0Z" fill="#7550FF" p-id="8719"></path><path d="M744 839.4m-60 0a60 60 0 1 0 120 0 60 60 0 1 0-120 0Z" fill="#754EFF" p-id="8720"></path><path d="M748.8 846.3m-60 0a60 60 0 1 0 120 0 60 60 0 1 0-120 0Z" fill="#754CFF" p-id="8721"></path><path d="M753.6 853.1m-60 0a60 60 0 1 0 120 0 60 60 0 1 0-120 0Z" fill="#754AFF" p-id="8722"></path><path d="M758.4 859.9m-60 0a60 60 0 1 0 120 0 60 60 0 1 0-120 0Z" fill="#7649FF" p-id="8723"></path><path d="M763.2 866.7m-60 0a60 60 0 1 0 120 0 60 60 0 1 0-120 0Z" fill="#7647FF" p-id="8724"></path><path d="M768 873.5m-60 0a60 60 0 1 0 120 0 60 60 0 1 0-120 0Z" fill="#7645FF" p-id="8725"></path><path d="M772.8 880.4m-60 0a60 60 0 1 0 120 0 60 60 0 1 0-120 0Z" fill="#7643FF" p-id="8726"></path><path d="M777.6 887.2m-60 0a60 60 0 1 0 120 0 60 60 0 1 0-120 0Z" fill="#7741FF" p-id="8727"></path><path d="M782.4 894m-60 0a60 60 0 1 0 120 0 60 60 0 1 0-120 0Z" fill="#773FFF" p-id="8728"></path><path d="M787.2 960.8c33 0 60-27 60-60s-27-60-60-60-60 27-60 60c0 33.1 26.9 60 60 60z" fill="#773DFF" p-id="8729"></path></svg>