<?xml version="1.0" standalone="no"?><!DOCTYPE svg PUBLIC "-//W3C//DTD SVG 1.1//EN" "http://www.w3.org/Graphics/SVG/1.1/DTD/svg11.dtd"><svg t="1516759810608" class="icon" style="" viewBox="0 0 1024 1024" version="1.1" xmlns="http://www.w3.org/2000/svg" p-id="8195" xmlns:xlink="http://www.w3.org/1999/xlink" width="48" height="48"><defs><style type="text/css"></style></defs><path d="M230.8 961.5c33 0 60-27 60-60s-27-60-60-60-60 27-60 60c0 33.1 26.9 60 60 60z" fill="#4C0094" p-id="8196"></path><path d="M230.8 891.5m-60 0a60 60 0 1 0 120 0 60 60 0 1 0-120 0Z" fill="#4C0295" p-id="8197"></path><path d="M230.8 881.4m-60 0a60 60 0 1 0 120 0 60 60 0 1 0-120 0Z" fill="#4C0596" p-id="8198"></path><path d="M230.8 871.2m-60 0a60 60 0 1 0 120 0 60 60 0 1 0-120 0Z" fill="#4C0797" p-id="8199"></path><path d="M230.8 861m-60 0a60 60 0 1 0 120 0 60 60 0 1 0-120 0Z" fill="#4D0A98" p-id="8200"></path><path d="M230.8 850.9m-60 0a60 60 0 1 0 120 0 60 60 0 1 0-120 0Z" fill="#4D0C99" p-id="8201"></path><path d="M230.8 840.7m-60 0a60 60 0 1 0 120 0 60 60 0 1 0-120 0Z" fill="#4D0F9A" p-id="8202"></path><path d="M230.8 830.6m-60 0a60 60 0 1 0 120 0 60 60 0 1 0-120 0Z" fill="#4D119B" p-id="8203"></path><path d="M230.8 820.4m-60 0a60 60 0 1 0 120 0 60 60 0 1 0-120 0Z" fill="#4D149C" p-id="8204"></path><path d="M230.8 810.3m-60 0a60 60 0 1 0 120 0 60 60 0 1 0-120 0Z" fill="#4D169E" p-id="8205"></path><path d="M230.8 800.1m-60 0a60 60 0 1 0 120 0 60 60 0 1 0-120 0Z" fill="#4D199F" p-id="8206"></path><path d="M230.8 789.9m-60 0a60 60 0 1 0 120 0 60 60 0 1 0-120 0Z" fill="#4D1BA0" p-id="8207"></path><path d="M230.8 779.8m-60 0a60 60 0 1 0 120 0 60 60 0 1 0-120 0Z" fill="#4E1EA1" p-id="8208"></path><path d="M230.8 769.6m-60 0a60 60 0 1 0 120 0 60 60 0 1 0-120 0Z" fill="#4E20A2" p-id="8209"></path><path d="M230.8 759.5m-60 0a60 60 0 1 0 120 0 60 60 0 1 0-120 0Z" fill="#4E23A3" p-id="8210"></path><path d="M230.8 749.3m-60 0a60 60 0 1 0 120 0 60 60 0 1 0-120 0Z" fill="#4E25A4" p-id="8211"></path><path d="M230.8 739.2m-60 0a60 60 0 1 0 120 0 60 60 0 1 0-120 0Z" fill="#4E28A5" p-id="8212"></path><path d="M230.8 729m-60 0a60 60 0 1 0 120 0 60 60 0 1 0-120 0Z" fill="#4E2AA6" p-id="8213"></path><path d="M230.8 718.8m-60 0a60 60 0 1 0 120 0 60 60 0 1 0-120 0Z" fill="#4E2DA7" p-id="8214"></path><path d="M230.8 708.7m-60 0a60 60 0 1 0 120 0 60 60 0 1 0-120 0Z" fill="#4E2FA8" p-id="8215"></path><path d="M230.8 698.5m-60 0a60 60 0 1 0 120 0 60 60 0 1 0-120 0Z" fill="#4F32A9" p-id="8216"></path><path d="M230.8 688.4m-60 0a60 60 0 1 0 120 0 60 60 0 1 0-120 0Z" fill="#4F34AA" p-id="8217"></path><path d="M230.8 678.2m-60 0a60 60 0 1 0 120 0 60 60 0 1 0-120 0Z" fill="#4F37AB" p-id="8218"></path><path d="M230.8 668.1m-60 0a60 60 0 1 0 120 0 60 60 0 1 0-120 0Z" fill="#4F39AC" p-id="8219"></path><path d="M230.8 657.9m-60 0a60 60 0 1 0 120 0 60 60 0 1 0-120 0Z" fill="#4F3CAD" p-id="8220"></path><path d="M230.8 647.8m-60 0a60 60 0 1 0 120 0 60 60 0 1 0-120 0Z" fill="#4F3EAE" p-id="8221"></path><path d="M230.8 637.6m-60 0a60 60 0 1 0 120 0 60 60 0 1 0-120 0Z" fill="#4F41B0" p-id="8222"></path><path d="M230.8 627.4m-60 0a60 60 0 1 0 120 0 60 60 0 1 0-120 0Z" fill="#4F43B1" p-id="8223"></path><path d="M230.8 617.3m-60 0a60 60 0 1 0 120 0 60 60 0 1 0-120 0Z" fill="#5046B2" p-id="8224"></path><path d="M230.8 607.1m-60 0a60 60 0 1 0 120 0 60 60 0 1 0-120 0Z" fill="#5048B3" p-id="8225"></path><path d="M230.8 597m-60 0a60 60 0 1 0 120 0 60 60 0 1 0-120 0Z" fill="#504BB4" p-id="8226"></path><path d="M230.8 586.8m-60 0a60 60 0 1 0 120 0 60 60 0 1 0-120 0Z" fill="#504DB5" p-id="8227"></path><path d="M230.8 576.7m-60 0a60 60 0 1 0 120 0 60 60 0 1 0-120 0Z" fill="#5050B6" p-id="8228"></path><path d="M230.8 566.5m-60 0a60 60 0 1 0 120 0 60 60 0 1 0-120 0Z" fill="#5052B7" p-id="8229"></path><path d="M230.8 556.3m-60 0a60 60 0 1 0 120 0 60 60 0 1 0-120 0Z" fill="#5055B8" p-id="8230"></path><path d="M230.8 546.2m-60 0a60 60 0 1 0 120 0 60 60 0 1 0-120 0Z" fill="#5157B9" p-id="8231"></path><path d="M230.8 536m-60 0a60 60 0 1 0 120 0 60 60 0 1 0-120 0Z" fill="#515ABA" p-id="8232"></path><path d="M230.8 525.9m-60 0a60 60 0 1 0 120 0 60 60 0 1 0-120 0Z" fill="#515CBB" p-id="8233"></path><path d="M230.8 515.7m-60 0a60 60 0 1 0 120 0 60 60 0 1 0-120 0Z" fill="#515FBC" p-id="8234"></path><path d="M230.8 505.6m-60 0a60 60 0 1 0 120 0 60 60 0 1 0-120 0Z" fill="#5161BD" p-id="8235"></path><path d="M230.8 495.4m-60 0a60 60 0 1 0 120 0 60 60 0 1 0-120 0Z" fill="#5164BE" p-id="8236"></path><path d="M230.8 485.2m-60 0a60 60 0 1 0 120 0 60 60 0 1 0-120 0Z" fill="#5166BF" p-id="8237"></path><path d="M230.8 475.1m-60 0a60 60 0 1 0 120 0 60 60 0 1 0-120 0Z" fill="#5169C0" p-id="8238"></path><path d="M230.8 464.9m-60 0a60 60 0 1 0 120 0 60 60 0 1 0-120 0Z" fill="#526BC2" p-id="8239"></path><path d="M230.8 454.8m-60 0a60 60 0 1 0 120 0 60 60 0 1 0-120 0Z" fill="#526EC3" p-id="8240"></path><path d="M230.8 444.6m-60 0a60 60 0 1 0 120 0 60 60 0 1 0-120 0Z" fill="#5270C4" p-id="8241"></path><path d="M230.8 434.5m-60 0a60 60 0 1 0 120 0 60 60 0 1 0-120 0Z" fill="#5273C5" p-id="8242"></path><path d="M230.8 424.3m-60 0a60 60 0 1 0 120 0 60 60 0 1 0-120 0Z" fill="#5275C6" p-id="8243"></path><path d="M230.8 414.2m-60 0a60 60 0 1 0 120 0 60 60 0 1 0-120 0Z" fill="#5278C7" p-id="8244"></path><path d="M230.8 404m-60 0a60 60 0 1 0 120 0 60 60 0 1 0-120 0Z" fill="#527AC8" p-id="8245"></path><path d="M230.8 393.8m-60 0a60 60 0 1 0 120 0 60 60 0 1 0-120 0Z" fill="#527DC9" p-id="8246"></path><path d="M230.8 383.7m-60 0a60 60 0 1 0 120 0 60 60 0 1 0-120 0Z" fill="#537FCA" p-id="8247"></path><path d="M230.8 373.5m-60 0a60 60 0 1 0 120 0 60 60 0 1 0-120 0Z" fill="#5382CB" p-id="8248"></path><path d="M230.8 363.4m-60 0a60 60 0 1 0 120 0 60 60 0 1 0-120 0Z" fill="#5384CC" p-id="8249"></path><path d="M230.8 353.2m-60 0a60 60 0 1 0 120 0 60 60 0 1 0-120 0Z" fill="#5387CD" p-id="8250"></path><path d="M230.8 343.1m-60 0a60 60 0 1 0 120 0 60 60 0 1 0-120 0Z" fill="#5389CE" p-id="8251"></path><path d="M230.8 332.9m-60 0a60 60 0 1 0 120 0 60 60 0 1 0-120 0Z" fill="#538CCF" p-id="8252"></path><path d="M230.8 322.7m-60 0a60 60 0 1 0 120 0 60 60 0 1 0-120 0Z" fill="#538ED0" p-id="8253"></path><path d="M230.8 312.6m-60 0a60 60 0 1 0 120 0 60 60 0 1 0-120 0Z" fill="#5391D1" p-id="8254"></path><path d="M230.8 302.4m-60 0a60 60 0 1 0 120 0 60 60 0 1 0-120 0Z" fill="#5493D3" p-id="8255"></path><path d="M230.8 292.3m-60 0a60 60 0 1 0 120 0 60 60 0 1 0-120 0Z" fill="#5496D4" p-id="8256"></path><path d="M230.8 282.1m-60 0a60 60 0 1 0 120 0 60 60 0 1 0-120 0Z" fill="#5498D5" p-id="8257"></path><path d="M230.8 272m-60 0a60 60 0 1 0 120 0 60 60 0 1 0-120 0Z" fill="#549BD6" p-id="8258"></path><path d="M230.8 261.8m-60 0a60 60 0 1 0 120 0 60 60 0 1 0-120 0Z" fill="#549DD7" p-id="8259"></path><path d="M230.8 251.6m-60 0a60 60 0 1 0 120 0 60 60 0 1 0-120 0Z" fill="#54A0D8" p-id="8260"></path><path d="M230.8 241.5m-60 0a60 60 0 1 0 120 0 60 60 0 1 0-120 0Z" fill="#54A2D9" p-id="8261"></path><path d="M230.8 231.3m-60 0a60 60 0 1 0 120 0 60 60 0 1 0-120 0Z" fill="#54A5DA" p-id="8262"></path><path d="M230.8 221.2m-60 0a60 60 0 1 0 120 0 60 60 0 1 0-120 0Z" fill="#55A7DB" p-id="8263"></path><path d="M230.8 211m-60 0a60 60 0 1 0 120 0 60 60 0 1 0-120 0Z" fill="#55AADC" p-id="8264"></path><path d="M230.8 200.9m-60 0a60 60 0 1 0 120 0 60 60 0 1 0-120 0Z" fill="#55ACDD" p-id="8265"></path><path d="M230.8 190.7m-60 0a60 60 0 1 0 120 0 60 60 0 1 0-120 0Z" fill="#55AFDE" p-id="8266"></path><path d="M230.8 180.5m-60 0a60 60 0 1 0 120 0 60 60 0 1 0-120 0Z" fill="#55B1DF" p-id="8267"></path><path d="M230.8 170.4m-60 0a60 60 0 1 0 120 0 60 60 0 1 0-120 0Z" fill="#55B4E0" p-id="8268"></path><path d="M230.8 160.2m-60 0a60 60 0 1 0 120 0 60 60 0 1 0-120 0Z" fill="#55B6E1" p-id="8269"></path><path d="M230.8 150.1m-60 0a60 60 0 1 0 120 0 60 60 0 1 0-120 0Z" fill="#56B9E2" p-id="8270"></path><path d="M230.8 139.9m-60 0a60 60 0 1 0 120 0 60 60 0 1 0-120 0Z" fill="#56BBE3" p-id="8271"></path><path d="M230.8 129.8m-60 0a60 60 0 1 0 120 0 60 60 0 1 0-120 0Z" fill="#56BEE5" p-id="8272"></path><path d="M235.7 124.5m-60 0a60 60 0 1 0 120 0 60 60 0 1 0-120 0Z" fill="#56C0E6" p-id="8273"></path><path d="M245.8 124.3m-60 0a60 60 0 1 0 120 0 60 60 0 1 0-120 0Z" fill="#56C3E7" p-id="8274"></path><path d="M256 124.2m-60 0a60 60 0 1 0 120 0 60 60 0 1 0-120 0Z" fill="#56C5E8" p-id="8275"></path><path d="M266.1 124.1m-60 0a60 60 0 1 0 120 0 60 60 0 1 0-120 0Z" fill="#56C8E9" p-id="8276"></path><path d="M276.3 124m-60 0a60 60 0 1 0 120 0 60 60 0 1 0-120 0Z" fill="#56CAEA" p-id="8277"></path><path d="M286.5 123.9m-60 0a60 60 0 1 0 120 0 60 60 0 1 0-120 0Z" fill="#57CDEB" p-id="8278"></path><path d="M296.6 123.8m-60 0a60 60 0 1 0 120 0 60 60 0 1 0-120 0Z" fill="#57CFEC" p-id="8279"></path><path d="M306.8 123.7m-60 0a60 60 0 1 0 120 0 60 60 0 1 0-120 0Z" fill="#57D2ED" p-id="8280"></path><path d="M316.9 123.6m-60 0a60 60 0 1 0 120 0 60 60 0 1 0-120 0Z" fill="#57D4EE" p-id="8281"></path><path d="M327.1 123.5m-60 0a60 60 0 1 0 120 0 60 60 0 1 0-120 0Z" fill="#57D7EF" p-id="8282"></path><path d="M337.2 123.4m-60 0a60 60 0 1 0 120 0 60 60 0 1 0-120 0Z" fill="#57D9F0" p-id="8283"></path><path d="M347.4 123.3m-60 0a60 60 0 1 0 120 0 60 60 0 1 0-120 0Z" fill="#57DCF1" p-id="8284"></path><path d="M357.5 123.2m-60 0a60 60 0 1 0 120 0 60 60 0 1 0-120 0Z" fill="#57DEF2" p-id="8285"></path><path d="M367.7 123.1m-60 0a60 60 0 1 0 120 0 60 60 0 1 0-120 0Z" fill="#58E1F3" p-id="8286"></path><path d="M377.9 123m-60 0a60 60 0 1 0 120 0 60 60 0 1 0-120 0Z" fill="#58E3F4" p-id="8287"></path><path d="M388 122.9m-60 0a60 60 0 1 0 120 0 60 60 0 1 0-120 0Z" fill="#58E6F5" p-id="8288"></path><path d="M398.2 122.8m-60 0a60 60 0 1 0 120 0 60 60 0 1 0-120 0Z" fill="#58E8F7" p-id="8289"></path><path d="M408.3 122.7m-60 0a60 60 0 1 0 120 0 60 60 0 1 0-120 0Z" fill="#58EBF8" p-id="8290"></path><path d="M418.5 122.6m-60 0a60 60 0 1 0 120 0 60 60 0 1 0-120 0Z" fill="#58EDF9" p-id="8291"></path><path d="M428.6 122.5m-60 0a60 60 0 1 0 120 0 60 60 0 1 0-120 0Z" fill="#58F0FA" p-id="8292"></path><path d="M438.8 122.5m-60 0a60 60 0 1 0 120 0 60 60 0 1 0-120 0Z" fill="#58F2FB" p-id="8293"></path><path d="M448.9 123.1m-60 0a60 60 0 1 0 120 0 60 60 0 1 0-120 0Z" fill="#59F5FC" p-id="8294"></path><path d="M459 124.3m-60 0a60 60 0 1 0 120 0 60 60 0 1 0-120 0Z" fill="#59F7FD" p-id="8295"></path><path d="M469 126m-60 0a60 60 0 1 0 120 0 60 60 0 1 0-120 0Z" fill="#59FAFE" p-id="8296"></path><path d="M478.8 188.3c33 0 60-27 60-60s-27-60-60-60-60 27-60 60c0 33.1 26.9 60 60 60z" fill="#59FCFF" p-id="8297"></path><path d="M493 132.8m-60 0a60 60 0 1 0 120 0 60 60 0 1 0-120 0Z" fill="#59FAFF" p-id="8298"></path><path d="M506.8 138.4m-60 0a60 60 0 1 0 120 0 60 60 0 1 0-120 0Z" fill="#5AF8FF" p-id="8299"></path><path d="M520.1 145.2m-60 0a60 60 0 1 0 120 0 60 60 0 1 0-120 0Z" fill="#5AF7FF" p-id="8300"></path><path d="M532.7 153.1m-60 0a60 60 0 1 0 120 0 60 60 0 1 0-120 0Z" fill="#5BF5FF" p-id="8301"></path><path d="M544.6 162m-60 0a60 60 0 1 0 120 0 60 60 0 1 0-120 0Z" fill="#5BF3FF" p-id="8302"></path><path d="M555.7 171.9m-60 0a60 60 0 1 0 120 0 60 60 0 1 0-120 0Z" fill="#5CF1FF" p-id="8303"></path><path d="M566 182.7m-60 0a60 60 0 1 0 120 0 60 60 0 1 0-120 0Z" fill="#5CEFFF" p-id="8304"></path><path d="M575.3 194.4m-60 0a60 60 0 1 0 120 0 60 60 0 1 0-120 0Z" fill="#5DEEFF" p-id="8305"></path><path d="M583.6 206.7m-60 0a60 60 0 1 0 120 0 60 60 0 1 0-120 0Z" fill="#5DECFF" p-id="8306"></path><path d="M590.8 219.8m-60 0a60 60 0 1 0 120 0 60 60 0 1 0-120 0Z" fill="#5EEAFF" p-id="8307"></path><path d="M596.9 233.4m-60 0a60 60 0 1 0 120 0 60 60 0 1 0-120 0Z" fill="#5EE8FF" p-id="8308"></path><path d="M601.8 247.4m-60 0a60 60 0 1 0 120 0 60 60 0 1 0-120 0Z" fill="#5EE6FF" p-id="8309"></path><path d="M605.5 261.9m-60 0a60 60 0 1 0 120 0 60 60 0 1 0-120 0Z" fill="#5FE5FF" p-id="8310"></path><path d="M607.9 276.6m-60 0a60 60 0 1 0 120 0 60 60 0 1 0-120 0Z" fill="#5FE3FF" p-id="8311"></path><path d="M609.1 291.4m-60 0a60 60 0 1 0 120 0 60 60 0 1 0-120 0Z" fill="#60E1FF" p-id="8312"></path><path d="M609.1 306.3m-60 0a60 60 0 1 0 120 0 60 60 0 1 0-120 0Z" fill="#60DFFF" p-id="8313"></path><path d="M607.7 321.2m-60 0a60 60 0 1 0 120 0 60 60 0 1 0-120 0Z" fill="#61DEFF" p-id="8314"></path><path d="M605.2 335.8m-60 0a60 60 0 1 0 120 0 60 60 0 1 0-120 0Z" fill="#61DCFF" p-id="8315"></path><path d="M601.4 350.3m-60 0a60 60 0 1 0 120 0 60 60 0 1 0-120 0Z" fill="#62DAFF" p-id="8316"></path><path d="M596.4 364.3m-60 0a60 60 0 1 0 120 0 60 60 0 1 0-120 0Z" fill="#62D8FF" p-id="8317"></path><path d="M590.2 377.8m-60 0a60 60 0 1 0 120 0 60 60 0 1 0-120 0Z" fill="#63D6FF" p-id="8318"></path><path d="M582.9 390.8m-60 0a60 60 0 1 0 120 0 60 60 0 1 0-120 0Z" fill="#63D5FF" p-id="8319"></path><path d="M574.5 403.1m-60 0a60 60 0 1 0 120 0 60 60 0 1 0-120 0Z" fill="#63D3FF" p-id="8320"></path><path d="M565.1 414.7m-60 0a60 60 0 1 0 120 0 60 60 0 1 0-120 0Z" fill="#64D1FF" p-id="8321"></path><path d="M554.7 425.4m-60 0a60 60 0 1 0 120 0 60 60 0 1 0-120 0Z" fill="#64CFFF" p-id="8322"></path><path d="M543.5 435.2m-60 0a60 60 0 1 0 120 0 60 60 0 1 0-120 0Z" fill="#65CDFF" p-id="8323"></path><path d="M531.5 444.1m-60 0a60 60 0 1 0 120 0 60 60 0 1 0-120 0Z" fill="#65CCFF" p-id="8324"></path><path d="M518.8 451.8m-60 0a60 60 0 1 0 120 0 60 60 0 1 0-120 0Z" fill="#66CAFF" p-id="8325"></path><path d="M505.5 458.5m-60 0a60 60 0 1 0 120 0 60 60 0 1 0-120 0Z" fill="#66C8FF" p-id="8326"></path><path d="M491.7 464m-60 0a60 60 0 1 0 120 0 60 60 0 1 0-120 0Z" fill="#67C6FF" p-id="8327"></path><path d="M477.4 468.4m-60 0a60 60 0 1 0 120 0 60 60 0 1 0-120 0Z" fill="#67C4FF" p-id="8328"></path><path d="M462.8 471.4m-60 0a60 60 0 1 0 120 0 60 60 0 1 0-120 0Z" fill="#68C3FF" p-id="8329"></path><path d="M448 473.3m-60 0a60 60 0 1 0 120 0 60 60 0 1 0-120 0Z" fill="#68C1FF" p-id="8330"></path><path d="M433.9 473.9m-60 0a60 60 0 1 0 120 0 60 60 0 1 0-120 0Z" fill="#68BFFF" p-id="8331"></path><path d="M448.8 473.9m-60 0a60 60 0 1 0 120 0 60 60 0 1 0-120 0Z" fill="#69BDFF" p-id="8332"></path><path d="M463.7 473.9m-60 0a60 60 0 1 0 120 0 60 60 0 1 0-120 0Z" fill="#69BBFF" p-id="8333"></path><path d="M478.6 473.9m-60 0a60 60 0 1 0 120 0 60 60 0 1 0-120 0Z" fill="#6ABAFF" p-id="8334"></path><path d="M493.5 474m-60 0a60 60 0 1 0 120 0 60 60 0 1 0-120 0Z" fill="#6AB8FF" p-id="8335"></path><path d="M508.4 474m-60 0a60 60 0 1 0 120 0 60 60 0 1 0-120 0Z" fill="#6BB6FF" p-id="8336"></path><path d="M523.3 474m-60 0a60 60 0 1 0 120 0 60 60 0 1 0-120 0Z" fill="#6BB4FF" p-id="8337"></path><path d="M538.2 474m-60 0a60 60 0 1 0 120 0 60 60 0 1 0-120 0Z" fill="#6CB3FF" p-id="8338"></path><path d="M553.1 474m-60 0a60 60 0 1 0 120 0 60 60 0 1 0-120 0Z" fill="#6CB1FF" p-id="8339"></path><path d="M568 474m-60 0a60 60 0 1 0 120 0 60 60 0 1 0-120 0Z" fill="#6DAFFF" p-id="8340"></path><path d="M582.9 474.1m-60 0a60 60 0 1 0 120 0 60 60 0 1 0-120 0Z" fill="#6DADFF" p-id="8341"></path><path d="M597.8 474.9m-60 0a60 60 0 1 0 120 0 60 60 0 1 0-120 0Z" fill="#6DABFF" p-id="8342"></path><path d="M612.6 476.6m-60 0a60 60 0 1 0 120 0 60 60 0 1 0-120 0Z" fill="#6EAAFF" p-id="8343"></path><path d="M627.2 479.4m-60 0a60 60 0 1 0 120 0 60 60 0 1 0-120 0Z" fill="#6EA8FF" p-id="8344"></path><path d="M641.6 483.2m-60 0a60 60 0 1 0 120 0 60 60 0 1 0-120 0Z" fill="#6FA6FF" p-id="8345"></path><path d="M655.7 488.1m-60 0a60 60 0 1 0 120 0 60 60 0 1 0-120 0Z" fill="#6FA4FF" p-id="8346"></path><path d="M669.5 493.8m-60 0a60 60 0 1 0 120 0 60 60 0 1 0-120 0Z" fill="#70A2FF" p-id="8347"></path><path d="M682.8 500.6m-60 0a60 60 0 1 0 120 0 60 60 0 1 0-120 0Z" fill="#70A1FF" p-id="8348"></path><path d="M695.5 508.2m-60 0a60 60 0 1 0 120 0 60 60 0 1 0-120 0Z" fill="#719FFF" p-id="8349"></path><path d="M707.8 516.7m-60 0a60 60 0 1 0 120 0 60 60 0 1 0-120 0Z" fill="#719DFF" p-id="8350"></path><path d="M719.3 526.1m-60 0a60 60 0 1 0 120 0 60 60 0 1 0-120 0Z" fill="#729BFF" p-id="8351"></path><path d="M730.3 536.2m-60 0a60 60 0 1 0 120 0 60 60 0 1 0-120 0Z" fill="#7299FF" p-id="8352"></path><path d="M740.5 547.1m-60 0a60 60 0 1 0 120 0 60 60 0 1 0-120 0Z" fill="#7398FF" p-id="8353"></path><path d="M749.9 558.7m-60 0a60 60 0 1 0 120 0 60 60 0 1 0-120 0Z" fill="#7396FF" p-id="8354"></path><path d="M758.5 570.8m-60 0a60 60 0 1 0 120 0 60 60 0 1 0-120 0Z" fill="#7394FF" p-id="8355"></path><path d="M766.2 583.6m-60 0a60 60 0 1 0 120 0 60 60 0 1 0-120 0Z" fill="#7492FF" p-id="8356"></path><path d="M773 596.8m-60 0a60 60 0 1 0 120 0 60 60 0 1 0-120 0Z" fill="#7490FF" p-id="8357"></path><path d="M778.9 610.5m-60 0a60 60 0 1 0 120 0 60 60 0 1 0-120 0Z" fill="#758FFF" p-id="8358"></path><path d="M783.8 624.6m-60 0a60 60 0 1 0 120 0 60 60 0 1 0-120 0Z" fill="#758DFF" p-id="8359"></path><path d="M787.7 639m-60 0a60 60 0 1 0 120 0 60 60 0 1 0-120 0Z" fill="#768BFF" p-id="8360"></path><path d="M790.6 653.6m-60 0a60 60 0 1 0 120 0 60 60 0 1 0-120 0Z" fill="#7689FF" p-id="8361"></path><path d="M792.4 668.4m-60 0a60 60 0 1 0 120 0 60 60 0 1 0-120 0Z" fill="#7788FF" p-id="8362"></path><path d="M793.2 683.2m-60 0a60 60 0 1 0 120 0 60 60 0 1 0-120 0Z" fill="#7786FF" p-id="8363"></path><path d="M793.1 698.1m-60 0a60 60 0 1 0 120 0 60 60 0 1 0-120 0Z" fill="#7884FF" p-id="8364"></path><path d="M791.8 713m-60 0a60 60 0 1 0 120 0 60 60 0 1 0-120 0Z" fill="#7882FF" p-id="8365"></path><path d="M789.6 727.7m-60 0a60 60 0 1 0 120 0 60 60 0 1 0-120 0Z" fill="#7880FF" p-id="8366"></path><path d="M786.3 742.3m-60 0a60 60 0 1 0 120 0 60 60 0 1 0-120 0Z" fill="#797FFF" p-id="8367"></path><path d="M782 756.5m-60 0a60 60 0 1 0 120 0 60 60 0 1 0-120 0Z" fill="#797DFF" p-id="8368"></path><path d="M776.7 770.5m-60 0a60 60 0 1 0 120 0 60 60 0 1 0-120 0Z" fill="#7A7BFF" p-id="8369"></path><path d="M770.5 784m-60 0a60 60 0 1 0 120 0 60 60 0 1 0-120 0Z" fill="#7A79FF" p-id="8370"></path><path d="M763.3 797m-60 0a60 60 0 1 0 120 0 60 60 0 1 0-120 0Z" fill="#7B77FF" p-id="8371"></path><path d="M755.2 809.6m-60 0a60 60 0 1 0 120 0 60 60 0 1 0-120 0Z" fill="#7B76FF" p-id="8372"></path><path d="M746.3 821.5m-60 0a60 60 0 1 0 120 0 60 60 0 1 0-120 0Z" fill="#7C74FF" p-id="8373"></path><path d="M736.6 832.8m-60 0a60 60 0 1 0 120 0 60 60 0 1 0-120 0Z" fill="#7C72FF" p-id="8374"></path><path d="M726.1 843.4m-60 0a60 60 0 1 0 120 0 60 60 0 1 0-120 0Z" fill="#7D70FF" p-id="8375"></path><path d="M714.9 853.2m-60 0a60 60 0 1 0 120 0 60 60 0 1 0-120 0Z" fill="#7D6EFF" p-id="8376"></path><path d="M703 862.2m-60 0a60 60 0 1 0 120 0 60 60 0 1 0-120 0Z" fill="#7D6DFF" p-id="8377"></path><path d="M690.6 870.5m-60 0a60 60 0 1 0 120 0 60 60 0 1 0-120 0Z" fill="#7E6BFF" p-id="8378"></path><path d="M677.6 877.7m-60 0a60 60 0 1 0 120 0 60 60 0 1 0-120 0Z" fill="#7E69FF" p-id="8379"></path><path d="M664.2 884.1m-60 0a60 60 0 1 0 120 0 60 60 0 1 0-120 0Z" fill="#7F67FF" p-id="8380"></path><path d="M650.3 889.5m-60 0a60 60 0 1 0 120 0 60 60 0 1 0-120 0Z" fill="#7F65FF" p-id="8381"></path><path d="M636.1 893.9m-60 0a60 60 0 1 0 120 0 60 60 0 1 0-120 0Z" fill="#8064FF" p-id="8382"></path><path d="M621.6 897.4m-60 0a60 60 0 1 0 120 0 60 60 0 1 0-120 0Z" fill="#8062FF" p-id="8383"></path><path d="M606.8 899.8m-60 0a60 60 0 1 0 120 0 60 60 0 1 0-120 0Z" fill="#8160FF" p-id="8384"></path><path d="M592 901.2m-60 0a60 60 0 1 0 120 0 60 60 0 1 0-120 0Z" fill="#815EFF" p-id="8385"></path><path d="M577.1 901.5m-60 0a60 60 0 1 0 120 0 60 60 0 1 0-120 0Z" fill="#825DFF" p-id="8386"></path><path d="M562.2 901.5m-60 0a60 60 0 1 0 120 0 60 60 0 1 0-120 0Z" fill="#825BFF" p-id="8387"></path><path d="M547.3 901.5m-60 0a60 60 0 1 0 120 0 60 60 0 1 0-120 0Z" fill="#8259FF" p-id="8388"></path><path d="M532.4 901.5m-60 0a60 60 0 1 0 120 0 60 60 0 1 0-120 0Z" fill="#8357FF" p-id="8389"></path><path d="M517.5 901.5m-60 0a60 60 0 1 0 120 0 60 60 0 1 0-120 0Z" fill="#8355FF" p-id="8390"></path><path d="M502.6 901.5m-60 0a60 60 0 1 0 120 0 60 60 0 1 0-120 0Z" fill="#8454FF" p-id="8391"></path><path d="M487.7 901.5m-60 0a60 60 0 1 0 120 0 60 60 0 1 0-120 0Z" fill="#8452FF" p-id="8392"></path><path d="M472.8 901.5m-60 0a60 60 0 1 0 120 0 60 60 0 1 0-120 0Z" fill="#8550FF" p-id="8393"></path><path d="M457.9 901.5m-60 0a60 60 0 1 0 120 0 60 60 0 1 0-120 0Z" fill="#854EFF" p-id="8394"></path><path d="M443 901.5m-60 0a60 60 0 1 0 120 0 60 60 0 1 0-120 0Z" fill="#864CFF" p-id="8395"></path><path d="M428.1 901.5m-60 0a60 60 0 1 0 120 0 60 60 0 1 0-120 0Z" fill="#864BFF" p-id="8396"></path><path d="M413.2 901.5m-60 0a60 60 0 1 0 120 0 60 60 0 1 0-120 0Z" fill="#8749FF" p-id="8397"></path><path d="M398.3 961.5c33 0 60-27 60-60s-27-60-60-60-60 27-60 60c0 33.1 26.9 60 60 60z" fill="#8747FF" p-id="8398"></path></svg>