<?xml version="1.0" standalone="no"?><!DOCTYPE svg PUBLIC "-//W3C//DTD SVG 1.1//EN" "http://www.w3.org/Graphics/SVG/1.1/DTD/svg11.dtd"><svg t="1517279209703" class="icon" style="" viewBox="0 0 1024 1024" version="1.1" xmlns="http://www.w3.org/2000/svg" p-id="7359" xmlns:xlink="http://www.w3.org/1999/xlink" width="48" height="48"><defs><style type="text/css"></style></defs><path d="M512.32 282.944c-31.872 0-57.664-25.792-57.664-57.664L454.656 57.984c0-31.808 25.792-57.6 57.664-57.6s57.664 25.792 57.664 57.6l0 167.424C569.984 257.216 544.192 282.944 512.32 282.944zM512.32 1023.616c-20.608 0-37.312-16.704-37.312-37.248l0-209.536c0-20.544 16.704-37.248 37.312-37.248 20.544 0 37.312 16.704 37.312 37.248l0 209.536C549.632 1006.912 532.864 1023.616 512.32 1023.616zM370.368 323.264c-19.328 0-38.08-10.048-48.448-28.032L234.176 145.792C218.752 119.04 227.968 84.8 254.656 69.312c26.752-15.36 60.992-6.272 76.416 20.48L418.752 239.36c15.36 26.752 6.272 60.928-20.48 76.352C389.44 320.832 379.904 323.264 370.368 323.264zM750.016 959.936c-11.776 0-22.848-6.016-29.12-16.768l-106.176-186.176c-9.344-16-3.968-36.544 12.16-45.888 16-9.344 36.48-3.84 45.888 12.16l106.112 186.112c9.344 16 3.904 36.608-12.096 45.952C761.344 958.528 755.648 959.936 750.016 959.936zM269.632 424.896c-8.96 0-17.856-2.176-26.048-6.912l-155.072-89.6C63.488 313.856 54.912 281.984 69.376 257.088c14.4-25.088 46.336-33.6 71.296-19.2l155.072 89.536C320.832 341.76 329.344 373.696 315.008 398.72 305.28 415.552 287.744 424.896 269.632 424.896L269.632 424.896zM928.768 783.168c-4.864 0-9.984-1.344-14.72-3.968l-193.344-112.128c-14.4-8.256-19.136-26.496-10.88-40.768 8.128-14.272 26.496-19.136 40.768-11.008l193.28 112.064c14.4 8.448 19.136 26.496 11.008 40.96C949.248 777.792 939.008 783.168 928.768 783.168L928.768 783.168zM235.264 561.92 48.768 561.92c-26.752 0-48.512-21.76-48.512-48.576s21.696-48.512 48.512-48.512l186.496 0c26.88 0 48.512 21.696 48.512 48.512S262.08 561.92 235.264 561.92zM993.856 542.528 993.856 542.528l-223.744 0c-16.512 0-29.888-13.376-29.888-29.824 0-16.448 13.376-29.824 29.888-29.824l0 0 223.744 0c16.512 0 29.888 13.376 29.888 29.824C1023.744 529.152 1010.368 542.528 993.856 542.528zM108.416 789.44c-15.488 0-30.656-8-38.784-22.464-12.224-21.504-5.056-48.896 16.384-61.12l169.088-96C276.544 597.632 303.808 604.864 316.16 626.304c12.288 21.504 4.992 48.832-16.448 61.056l-169.024 96C123.712 787.456 116.032 789.44 108.416 789.44zM736.576 414.272c-10.24 0-20.288-5.376-25.792-14.912-8.256-14.272-3.328-32.512 11.008-40.768l193.216-112.064c14.336-8.256 32.512-3.392 40.832 10.88 8.256 14.336 3.392 32.512-10.944 40.832L751.36 410.368C746.816 412.992 741.568 414.336 736.576 414.272L736.576 414.272zM278.144 960c-6.912 0-14.016-1.856-20.48-5.504-19.648-11.456-26.304-36.48-14.912-56.128l99.776-173.504c11.456-19.84 36.416-26.304 56.128-15.04 19.712 11.456 26.304 36.48 14.976 56.128l-99.84 173.44C306.176 952.64 292.352 960 278.144 960zM641.728 318.4c-4.928 0-10.048-1.28-14.784-3.968C612.608 306.176 607.808 287.872 615.936 273.536l110.976-192c8.384-14.272 26.496-19.136 40.96-10.944 14.272 8.192 19.136 26.496 10.88 40.768l-110.976 192C662.144 313.024 652.032 318.336 641.728 318.4L641.728 318.4z" p-id="7360" fill="#ffffff"></path></svg>