<?xml version="1.0" standalone="no"?><!DOCTYPE svg PUBLIC "-//W3C//DTD SVG 1.1//EN" "http://www.w3.org/Graphics/SVG/1.1/DTD/svg11.dtd"><svg t="1517277319056" class="icon" style="" viewBox="0 0 1024 1024" version="1.1" xmlns="http://www.w3.org/2000/svg" p-id="1979" xmlns:xlink="http://www.w3.org/1999/xlink" width="48" height="48"><defs><style type="text/css"></style></defs><path d="M867.84 453.12l-17.92-17.92c-186.88-186.88-488.96-186.88-675.84 0l-17.92 17.92-35.84-35.84 17.92-17.92c207.36-207.36 542.72-207.36 747.52 0l17.92 17.92-35.84 35.84z" fill="#ffffff" p-id="1980"></path><path d="M750.08 573.44l-17.92-17.92c-120.32-120.32-317.44-120.32-437.76 0l-17.92 17.92L238.08 537.6l17.92-17.92c140.8-140.8 371.2-140.8 512 0l17.92 17.92-35.84 35.84zM629.76 691.2l-17.92-17.92c-28.16-28.16-61.44-40.96-99.84-40.96s-74.24 15.36-99.84 40.96l-17.92 17.92-35.84-35.84 17.92-17.92c35.84-35.84 84.48-56.32 135.68-56.32s99.84 20.48 135.68 56.32l17.92 17.92-35.84 35.84zM512 903.68" fill="#ffffff" p-id="1981"></path><path d="M460.8 806.4a43.52 38.4 0 1 0 87.04 0 43.52 38.4 0 1 0-87.04 0Z" fill="#ffffff" p-id="1982"></path></svg>